<?xml version="1.0" encoding="UTF-8" standalone="no"?>
<!-- Created with Inkscape (http://www.inkscape.org/) -->

<svg
     width="100.00051pt"
     height="100pt"
     viewBox="0 0 100.00051 100"
     version="1.1"
     id="svg1"
     xml:space="preserve"
     xmlns:xlink="http://www.w3.org/1999/xlink"
     xmlns="http://www.w3.org/2000/svg"
     xmlns:svg="http://www.w3.org/2000/svg"><style
         id="style143">
.measure-arrow
{
}
.measure-label
{

}
.measure-line
{
}</style><defs
         id="defs1"><linearGradient
             id="linearGradient130"><stop
                 style="stop-color:#0d0d0d;stop-opacity:1;"
                 offset="0.25"
                 id="stop131" /><stop
                 style="stop-color:#808080;stop-opacity:1;"
                 offset="1"
                 id="stop133" /></linearGradient><linearGradient
             id="linearGradient128"><stop
                 style="stop-color:#ffffff;stop-opacity:1;"
                 offset="0.25"
                 id="stop128" /><stop
                 style="stop-color:#808080;stop-opacity:1;"
                 offset="1"
                 id="stop130" /></linearGradient><radialGradient
             xlink:href="#linearGradient128"
             id="radialGradient133"
             cx="-40.541977"
             cy="47.354481"
             fx="-40.541977"
             fy="47.354481"
             r="50.000244"
             gradientUnits="userSpaceOnUse"
             gradientTransform="rotate(-92.000021,-40.673822,46.094456)" /><radialGradient
             xlink:href="#linearGradient130"
             id="radialGradient134"
             cx="60.32589"
             cy="54.513649"
             fx="60.32589"
             fy="54.513649"
             r="50.000244"
             gradientUnits="userSpaceOnUse"
             gradientTransform="rotate(2.0000001,50.000248,50.000195)" /></defs><g
         id="layer1"
         transform="translate(2.5356462e-4)"><rect
             style="display:none;fill:#cccccc;fill-opacity:1;stroke:none;stroke-width:64;stroke-miterlimit:12.2;stroke-opacity:1;paint-order:stroke fill markers"
             id="rect108"
             width="100"
             height="100"
             x="0"
             y="0" /><rect
             style="display:none;fill:#000000;fill-opacity:1;stroke:none;stroke-width:64;stroke-miterlimit:12.2;stroke-opacity:1;paint-order:stroke fill markers"
             id="rect109"
             width="100"
             height="100"
             x="0"
             y="0" /><circle
             style="display:none;fill:#000000;fill-opacity:1;stroke-width:63.9999;stroke-miterlimit:12.2;stroke-opacity:0.5;paint-order:stroke fill markers"
             id="path30"
             cx="50"
             cy="50"
             r="50" /><g
             fill="#000000"
             fill-opacity="1"
             stroke="#000000"
             stroke-opacity="1"
             stroke-width="18.3663"
             stroke-linecap="round"
             stroke-linejoin="bevel"
             font-family="Arial"
             font-size="12px"
             font-weight="400"
             font-style="normal"
             id="g21"
             transform="matrix(0.06533691,0,0,0.06533773,-54.621446,-34.250422)"
             style="display:none;fill:#ffffff;fill-opacity:1;fill-rule:evenodd;stroke:none;stroke-opacity:1"><polyline
                 fill="none"
                 vector-effect="none"
                 points="1177,1907.92 1191.25,1917.46 1205.72,1926.68 1220.4,1935.56 1235.28,1944.1 1250.35,1952.3 1265.6,1960.15 1281.02,1967.65 1296.62,1974.8 1312.37,1981.59 1328.28,1988.01 1344.33,1994.07 1360.51,1999.76 1376.82,2005.09 1393.25,2010.03 "
                 id="polyline4"
                 style="display:none;fill:#ffffff;fill-opacity:1;stroke:none;stroke-width:18.3663;stroke-opacity:1" /><polyline
                 fill="none"
                 vector-effect="none"
                 points="1393.25,2010.03 1410.97,2014.91 1428.8,2019.36 1446.74,2023.36 1464.77,2026.93 1482.89,2030.05 1501.07,2032.73 1519.32,2034.96 1537.61,2036.75 1555.94,2038.08 1574.3,2038.97 1592.68,2039.41 1611.06,2039.39 1629.43,2038.93 1647.79,2038.01 1666.12,2036.64 1684.41,2034.83 1702.65,2032.57 1720.83,2029.86 1738.94,2026.71 1756.97,2023.11 1774.9,2019.08 1792.73,2014.6 1810.44,2009.69 1828.03,2004.35 1845.48,1998.58 1862.78,1992.38 1879.93,1985.76 1896.91,1978.72 1913.71,1971.27 1930.33,1963.41 1946.74,1955.14 1962.95,1946.48 1978.95,1937.42 1994.71,1927.97 2010.24,1918.13 2025.52,1907.92 "
                 id="polyline5"
                 style="display:none;fill:#ffffff;fill-opacity:1;stroke:none;stroke-width:18.3663;stroke-opacity:1" /><polyline
                 fill="none"
                 vector-effect="none"
                 points="1177,670.989 1169.56,676.221 1162.39,681.543 1155.47,686.951 1148.83,692.442 1142.45,698.013 1136.35,703.66 1130.52,709.38 1124.98,715.169 1119.72,721.024 1114.75,726.942 1110.07,732.919 1105.69,738.951 1101.6,745.035 1097.81,751.167 1094.32,757.344 1091.13,763.561 1088.25,769.816 1085.68,776.104 1083.41,782.421 1081.46,788.765 1079.81,795.13 1078.47,801.514 1077.45,807.912 1076.74,814.32 1076.35,820.736 1076.27,827.154 1076.5,833.571 1077.05,839.984 1077.91,846.388 1079.08,852.779 1080.56,859.154 1082.36,865.51 1084.47,871.841 1086.88,878.145 1089.61,884.417 1092.63,890.654 1095.97,896.852 1099.6,903.008 1103.54,909.117 1107.77,915.177 1112.3,921.183 1117.12,927.132 1122.23,933.02 1127.62,938.844 1133.3,944.6 1139.26,950.285 1145.49,955.895 1152,961.428 1158.78,966.879 1165.82,972.246 1173.12,977.525 1180.67,982.714 1188.48,987.808 1196.54,992.806 1204.83,997.703 1213.37,1002.5 1222.13,1007.19 1231.12,1011.77 1240.34,1016.24 1249.77,1020.59 1259.41,1024.83 1269.25,1028.95 1279.29,1032.95 1289.53,1036.82 1299.95,1040.57 1310.55,1044.19 1321.33,1047.68 1332.27,1051.03 1343.37,1054.25 1354.63,1057.34 1366.03,1060.28 1377.58,1063.09 1389.26,1065.75 1401.07,1068.27 1412.99,1070.65 1425.03,1072.87 1437.17,1074.95 1449.42,1076.89 1461.75,1078.67 1474.16,1080.3 1486.66,1081.77 1499.22,1083.1 1511.84,1084.27 1524.51,1085.29 1537.23,1086.15 1549.99,1086.85 1562.78,1087.4 1575.6,1087.79 1588.42,1088.03 1601.26,1088.11 1614.09,1088.03 1626.92,1087.79 1639.74,1087.4 1652.53,1086.85 1665.28,1086.15 1678.01,1085.29 1690.68,1084.27 1703.3,1083.1 1715.86,1081.77 1728.35,1080.3 1740.77,1078.67 1753.1,1076.89 1765.34,1074.95 1777.49,1072.87 1789.53,1070.65 1801.45,1068.27 1813.26,1065.75 1824.94,1063.09 1836.48,1060.28 1847.89,1057.34 1859.15,1054.25 1870.25,1051.03 1881.19,1047.68 1891.97,1044.19 1902.57,1040.57 1912.99,1036.82 1923.22,1032.95 1933.27,1028.95 1943.11,1024.83 1952.75,1020.59 1962.18,1016.24 1971.39,1011.77 1980.39,1007.19 1989.15,1002.5 1997.69,997.703 2005.98,992.806 2014.04,987.808 2021.84,982.714 2029.4,977.525 2036.7,972.246 2043.74,966.879 2050.52,961.428 2057.03,955.895 2063.26,950.285 2069.22,944.6 2074.9,938.844 2080.29,933.02 2085.4,927.132 2090.22,921.183 2094.75,915.177 2098.98,909.117 2102.92,903.008 2106.55,896.852 2109.88,890.654 2112.91,884.417 2115.64,878.145 2118.05,871.841 2120.16,865.51 2121.95,859.154 2123.44,852.779 2124.61,846.388 2125.47,839.984 2126.02,833.571 2126.25,827.154 2126.17,820.736 2125.77,814.32 2125.07,807.912 2124.04,801.514 2122.71,795.13 2121.06,788.765 2119.11,782.421 2116.84,776.104 2114.27,769.816 2111.38,763.561 2108.2,757.344 2104.71,751.167 2100.92,745.035 2096.83,738.951 2092.44,732.919 2087.76,726.942 2082.79,721.024 2077.54,715.169 2071.99,709.38 2066.17,703.66 2060.07,698.013 2053.69,692.442 2047.05,686.951 2040.13,681.543 2032.96,676.221 2025.52,670.989 "
                 id="polyline6"
                 style="display:inline;fill:#ffffff;fill-opacity:1;stroke:none;stroke-width:18.3663;stroke-opacity:1" /><polyline
                 fill="none"
                 vector-effect="none"
                 points="2025.52,670.989 2010.22,660.764 1994.67,650.918 1978.88,641.456 1962.87,632.385 1946.63,623.709 1930.19,615.435 1913.55,607.566 1896.73,600.108 1879.72,593.065 1862.55,586.442 1845.22,580.241 1827.74,574.468 1810.13,569.126 1792.39,564.218 1774.54,559.746 1756.58,555.713 1738.53,552.123 1720.39,548.977 1702.19,546.276 1683.92,544.023 1665.6,542.22 1647.25,540.866 1628.86,539.963 1610.46,539.511 1592.06,539.511 1573.66,539.963 1555.27,540.866 1536.92,542.22 1518.6,544.023 1500.33,546.276 1482.13,548.977 1463.99,552.123 1445.94,555.713 1427.98,559.746 1410.13,564.218 1392.39,569.126 1374.78,574.468 1357.3,580.241 1339.97,586.442 1322.8,593.065 1305.79,600.108 1288.96,607.566 1272.33,615.435 1255.88,623.709 1239.65,632.385 1223.64,641.456 1207.85,650.918 1192.3,660.764 1177,670.989 "
                 id="polyline7"
                 style="display:inline;fill:#ffffff;fill-opacity:1;stroke:none;stroke-width:18.3663;stroke-opacity:1" /><polyline
                 fill="none"
                 vector-effect="none"
                 points="1157.29,684.978 1142.73,695.947 1128.44,707.266 1114.43,718.93 1100.71,730.93 1087.28,743.26 1074.16,755.913 1061.35,768.882 1048.86,782.158 1036.69,795.733 1024.86,809.6 1013.36,823.751 1002.22,838.177 991.429,852.869 980.998,867.82 970.934,883.019 961.242,898.459 951.928,914.129 942.998,930.021 934.457,946.126 926.309,962.433 918.561,978.934 911.215,995.618 904.278,1012.48 897.752,1029.5 891.642,1046.67 885.951,1063.99 880.682,1081.44 875.84,1099.02 871.426,1116.7 867.443,1134.49 863.893,1152.37 860.779,1170.33 858.103,1188.37 855.866,1206.46 854.069,1224.6 852.713,1242.78 851.8,1260.98 851.329,1279.21 851.302,1297.44 851.717,1315.66 852.575,1333.87 853.876,1352.05 855.618,1370.2 857.801,1388.3 860.423,1406.34 863.482,1424.31 866.978,1442.2 870.907,1460 875.268,1477.7 880.057,1495.29 885.273,1512.76 890.912,1530.09 896.97,1547.29 903.444,1564.33 "
                 id="polyline9"
                 style="display:none;fill:#ffffff;fill-opacity:1;stroke:none;stroke-width:18.3663;stroke-opacity:1" /><polyline
                 fill="none"
                 vector-effect="none"
                 points="2045.23,1893.93 2059.79,1882.96 2074.08,1871.64 2088.09,1859.98 2101.81,1847.98 2115.24,1835.65 2128.36,1823 2141.17,1810.03 2153.66,1796.75 2165.83,1783.18 2177.66,1769.31 2189.15,1755.16 2200.3,1740.73 2211.09,1726.04 2221.52,1711.09 2231.58,1695.89 2241.28,1680.45 2250.59,1664.78 2259.52,1648.89 2268.06,1632.78 2276.21,1616.48 2283.96,1599.97 2291.3,1583.29 2298.24,1566.43 2304.77,1549.41 2310.88,1532.24 2316.57,1514.92 2321.84,1497.47 2326.68,1479.89 2331.09,1462.21 2335.08,1444.42 2338.63,1426.54 2341.74,1408.57 2344.42,1390.54 2346.65,1372.45 2348.45,1354.31 2349.81,1336.13 2350.72,1317.93 2351.19,1299.7 2351.22,1281.47 2350.8,1263.25 2349.94,1245.04 2348.64,1226.86 2346.9,1208.71 2344.72,1190.61 2342.1,1172.57 2339.04,1154.6 2335.54,1136.71 2331.61,1118.91 2327.25,1101.21 2322.46,1083.62 2317.25,1066.15 2311.61,1048.82 2305.55,1031.62 2299.07,1014.58 "
                 id="polyline10"
                 style="display:inline;fill:#ffffff;fill-opacity:1;stroke:none;stroke-width:18.3663;stroke-opacity:1" /><polyline
                 fill="none"
                 vector-effect="none"
                 points="2045.23,1893.93 2038.82,1898.5 2032.43,1902.78 2026.06,1906.78 2019.71,1910.49 2013.39,1913.9 2007.09,1917.02 2000.84,1919.84 1994.62,1922.36 1988.45,1924.59 1982.32,1926.51 1976.24,1928.13 1970.21,1929.45 1964.25,1930.47 1958.34,1931.18 1952.49,1931.58 1946.72,1931.68 1941.01,1931.48 1935.38,1930.96 1929.83,1930.15 1924.36,1929.03 1918.97,1927.61 1913.67,1925.88 1908.46,1923.85 1903.35,1921.52 1898.33,1918.89 1893.41,1915.97 1888.6,1912.75 1883.89,1909.23 1879.29,1905.43 1874.81,1901.33 1870.43,1896.95 1866.18,1892.28 1862.04,1887.33 1858.02,1882.1 1854.13,1876.6 1850.37,1870.82 1846.73,1864.78 1843.23,1858.47 1839.86,1851.9 1836.63,1845.07 1833.53,1837.99 1830.57,1830.66 1827.75,1823.08 1825.07,1815.27 1822.54,1807.22 1820.16,1798.94 1817.92,1790.43 1815.83,1781.7 1813.89,1772.76 1812.1,1763.61 1810.46,1754.26 1808.97,1744.7 1807.64,1734.95 1806.47,1725.02 1805.45,1714.9 1804.58,1704.61 1803.87,1694.15 1803.32,1683.53 1802.93,1672.75 1802.69,1661.82 1802.61,1650.75 1802.69,1639.54 1802.92,1628.2 1803.31,1616.74 1803.87,1605.16 1804.57,1593.48 1805.44,1581.69 1806.46,1569.81 1807.63,1557.83 1808.96,1545.78 1810.44,1533.66 1812.08,1521.46 1813.87,1509.21 1815.81,1496.91 1817.89,1484.56 1820.13,1472.18 1822.52,1459.77 1825.05,1447.33 1827.72,1434.88 1830.54,1422.43 1833.49,1409.97 1836.59,1397.53 1839.82,1385.09 1843.19,1372.68 1846.7,1360.31 1850.33,1347.97 1854.09,1335.67 1857.98,1323.43 1861.99,1311.24 1866.13,1299.13 1870.38,1287.09 1874.76,1275.13 1879.24,1263.26 1883.84,1251.49 1888.55,1239.82 1893.36,1228.25 1898.28,1216.81 1903.29,1205.49 1908.41,1194.3 1913.61,1183.25 1918.91,1172.35 1924.3,1161.59 1929.77,1150.99 1935.32,1140.56 1940.95,1130.29 1946.65,1120.2 1952.43,1110.29 1958.27,1100.58 1964.18,1091.05 1970.15,1081.72 1976.17,1072.6 1982.25,1063.69 1988.38,1055 1994.55,1046.53 2000.77,1038.28 2007.03,1030.26 2013.32,1022.48 2019.64,1014.95 2025.99,1007.65 2032.36,1000.61 2038.75,993.819 2045.16,987.287 2051.58,981.017 2058,975.012 2064.44,969.277 2070.87,963.815 2077.3,958.628 2083.72,953.72 2090.13,949.095 2096.52,944.754 2102.9,940.701 2109.25,936.937 2115.58,933.466 2121.88,930.289 2128.14,927.408 2134.37,924.824 2140.55,922.54 2146.69,920.557 2152.78,918.876 2158.81,917.497 2164.79,916.423 2170.71,915.653 2176.57,915.187 2182.36,915.027 2188.08,915.172 2193.73,915.623 2199.29,916.378 2204.78,917.438 2210.19,918.801 2215.5,920.467 2220.73,922.436 2225.86,924.705 2230.9,927.274 2235.84,930.14 2240.67,933.303 2245.4,936.76 2250.02,940.509 2254.53,944.548 2258.93,948.875 2263.21,953.487 2267.37,958.381 2271.41,963.554 2275.32,969.003 2279.11,974.725 2282.77,980.716 2286.3,986.973 2289.7,993.492 2292.96,1000.27 2296.09,1007.3 2299.07,1014.58 "
                 id="polyline11"
                 style="display:inline;fill:#ffffff;fill-opacity:1;stroke:none;stroke-width:18.3663;stroke-opacity:1" /><polyline
                 fill="none"
                 vector-effect="none"
                 points="1677.15,1918.24 1684.35,1911.8 1691.34,1905.12 1698.11,1898.2 1704.67,1891.07 1711,1883.7 1717.1,1876.12 1722.98,1868.33 1728.61,1860.33 1734.01,1852.12 1739.17,1843.72 1744.09,1835.12 1748.75,1826.33 1753.17,1817.35 1757.33,1808.2 1761.24,1798.88 1764.89,1789.39 1768.28,1779.74 1771.41,1769.93 1774.28,1759.97 1776.88,1749.87 1779.21,1739.63 1781.27,1729.26 1783.07,1718.76 1784.59,1708.15 1785.84,1697.42 1786.82,1686.59 1787.53,1675.66 1787.96,1664.63 1788.12,1653.52 1788,1642.33 1787.61,1631.06 1786.95,1619.73 1786.02,1608.34 1784.81,1596.9 1783.33,1585.41 1781.58,1573.89 1779.56,1562.33 1777.27,1550.75 1774.71,1539.15 1771.89,1527.54 1768.8,1515.92 1765.45,1504.31 1761.84,1492.71 1757.97,1481.13 1753.85,1469.57 1749.47,1458.04 1744.85,1446.55 1739.97,1435.1 1734.85,1423.71 1729.49,1412.38 1723.89,1401.11 1718.05,1389.91 1711.99,1378.8 1705.69,1367.76 1699.17,1356.83 1692.43,1345.99 1685.48,1335.25 1678.31,1324.63 1670.94,1314.13 1663.36,1303.75 1655.58,1293.5 1647.61,1283.39 1639.45,1273.43 1631.1,1263.61 1622.58,1253.95 1613.88,1244.45 1605.01,1235.11 1595.98,1225.95 1586.79,1216.97 1577.45,1208.17 1567.96,1199.56 1558.33,1191.14 1548.57,1182.92 1538.67,1174.9 1528.65,1167.1 1518.52,1159.51 1508.27,1152.13 1497.92,1144.98 1487.46,1138.05 1476.92,1131.36 1466.29,1124.9 1455.58,1118.68 1444.79,1112.7 1433.94,1106.97 1423.03,1101.48 1412.06,1096.25 1401.05,1091.28 1389.99,1086.57 1378.91,1082.11 1367.79,1077.93 1356.65,1074 1345.5,1070.35 1334.35,1066.97 1323.19,1063.87 1312.04,1061.04 1300.9,1058.48 1289.78,1056.21 1278.68,1054.22 1267.62,1052.5 1256.6,1051.07 1245.63,1049.93 1234.71,1049.06 1223.84,1048.48 1213.05,1048.19 1202.33,1048.18 1191.68,1048.46 1181.12,1049.02 1170.66,1049.87 1160.29,1051 1150.02,1052.41 1139.87,1054.1 1129.83,1056.08 1119.91,1058.34 1110.13,1060.88 1100.48,1063.69 1090.96,1066.78 1081.6,1070.14 1072.38,1073.78 1063.33,1077.68 1054.43,1081.85 1045.71,1086.29 1037.16,1090.99 1028.78,1095.95 1020.59,1101.16 1012.59,1106.63 1004.78,1112.35 997.17,1118.31 989.762,1124.52 982.561,1130.96 975.571,1137.64 968.797,1144.55 962.243,1151.69 955.912,1159.05 949.808,1166.63 943.936,1174.43 938.298,1182.43 932.899,1190.64 927.74,1199.04 922.826,1207.64 918.159,1216.43 913.743,1225.4 909.579,1234.56 905.671,1243.88 902.02,1253.37 898.629,1263.02 895.5,1272.83 892.635,1282.79 890.035,1292.89 887.703,1303.13 885.639,1313.5 883.845,1323.99 882.321,1334.61 881.07,1345.34 880.09,1356.17 879.384,1367.1 878.952,1378.13 878.793,1389.24 878.908,1400.43 879.297,1411.7 879.959,1423.03 880.895,1434.42 882.103,1445.86 883.583,1457.34 885.335,1468.87 887.356,1480.43 889.645,1492.01 892.202,1503.61 895.025,1515.22 898.112,1526.84 901.462,1538.45 905.071,1550.05 908.938,1561.63 913.062,1573.19 917.438,1584.72 922.065,1596.21 926.94,1607.65 932.06,1619.05 937.421,1630.38 943.021,1641.65 948.856,1652.85 954.923,1663.96 961.218,1674.99 967.737,1685.93 974.476,1696.77 981.432,1707.51 988.6,1718.13 995.975,1728.63 1003.55,1739.01 1011.33,1749.26 1019.3,1759.37 1027.46,1769.33 1035.81,1779.15 1044.33,1788.81 1053.03,1798.31 1061.9,1807.65 1070.93,1816.81 1080.12,1825.79 1089.46,1834.59 1098.95,1843.2 1108.58,1851.62 1118.34,1859.84 1128.24,1867.85 1138.26,1875.66 1148.39,1883.25 1158.64,1890.63 1168.99,1897.78 1179.45,1904.71 1189.99,1911.4 1200.62,1917.86 1211.33,1924.08 1222.12,1930.06 1232.97,1935.79 1243.88,1941.27 1254.85,1946.5 1265.86,1951.48 1276.92,1956.19 1288.01,1960.64 1299.12,1964.83 1310.26,1968.75 1321.41,1972.41 1332.57,1975.78 1343.72,1978.89 1354.88,1981.72 1366.02,1984.27 1377.13,1986.55 1388.23,1988.54 1399.29,1990.26 1410.31,1991.69 1421.28,1992.83 1432.2,1993.7 1443.07,1994.27 1453.86,1994.57 1464.59,1994.58 1475.23,1994.3 1485.79,1993.74 1496.26,1992.89 1506.63,1991.76 1516.89,1990.35 1527.04,1988.65 1537.08,1986.68 1547,1984.42 1556.78,1981.88 1566.44,1979.07 1575.95,1975.98 1585.31,1972.62 1594.53,1968.98 1603.58,1965.08 1612.48,1960.9 1621.2,1956.47 1629.75,1951.77 1638.13,1946.81 1646.32,1941.6 1654.32,1936.13 1662.13,1930.41 1669.74,1924.45 1677.15,1918.24 "
                 id="polyline12"
                 style="display:inline;fill:#ffffff;fill-opacity:1;stroke:none;stroke-width:18.3663;stroke-opacity:1" /><polyline
                 fill="none"
                 vector-effect="none"
                 points="2045.23,1893.93 2038.82,1898.5 2032.43,1902.78 2026.06,1906.78 2019.71,1910.49 2013.39,1913.9 2007.09,1917.02 2000.84,1919.84 1994.62,1922.36 1988.45,1924.59 1982.32,1926.51 1976.24,1928.13 1970.21,1929.45 1964.25,1930.47 1958.34,1931.18 1952.49,1931.58 1946.72,1931.68 1941.01,1931.48 1935.38,1930.96 1929.83,1930.15 1924.36,1929.03 1918.97,1927.61 1913.67,1925.88 1908.46,1923.85 1903.35,1921.52 1898.33,1918.89 1893.41,1915.97 1888.6,1912.75 1883.89,1909.23 1879.29,1905.43 1874.81,1901.33 1870.43,1896.95 1866.18,1892.28 1862.04,1887.33 1858.02,1882.1 1854.13,1876.6 1850.37,1870.82 1846.73,1864.78 1843.23,1858.47 1839.86,1851.9 1836.63,1845.07 1833.53,1837.99 1830.57,1830.66 1827.75,1823.08 1825.07,1815.27 1822.54,1807.22 1820.16,1798.94 1817.92,1790.43 1815.83,1781.7 1813.89,1772.76 1812.1,1763.61 1810.46,1754.26 1808.97,1744.7 1807.64,1734.95 1806.47,1725.02 1805.45,1714.9 1804.58,1704.61 1803.87,1694.15 1803.32,1683.53 1802.93,1672.75 1802.69,1661.82 1802.61,1650.75 1802.69,1639.54 1802.92,1628.2 1803.31,1616.74 1803.87,1605.16 1804.57,1593.48 1805.44,1581.69 1806.46,1569.81 1807.63,1557.83 1808.96,1545.78 1810.44,1533.66 1812.08,1521.46 1813.87,1509.21 1815.81,1496.91 1817.89,1484.56 1820.13,1472.18 1822.52,1459.77 1825.05,1447.33 1827.72,1434.88 1830.54,1422.43 1833.49,1409.97 1836.59,1397.53 1839.82,1385.09 1843.19,1372.68 1846.7,1360.31 1850.33,1347.97 1854.09,1335.67 1857.98,1323.43 1861.99,1311.24 1866.13,1299.13 1870.38,1287.09 1874.76,1275.13 1879.24,1263.26 1883.84,1251.49 1888.55,1239.82 1893.36,1228.25 1898.28,1216.81 1903.29,1205.49 1908.41,1194.3 1913.61,1183.25 1918.91,1172.35 1924.3,1161.59 1929.77,1150.99 1935.32,1140.56 1940.95,1130.29 1946.65,1120.2 1952.43,1110.29 1958.27,1100.58 1964.18,1091.05 1970.15,1081.72 1976.17,1072.6 1982.25,1063.69 1988.38,1055 1994.55,1046.53 2000.77,1038.28 2007.03,1030.26 2013.32,1022.48 2019.64,1014.95 2025.99,1007.65 2032.36,1000.61 2038.75,993.819 2045.16,987.287 2051.58,981.017 2058,975.012 2064.44,969.277 2070.87,963.815 2077.3,958.628 2083.72,953.72 2090.13,949.095 2096.52,944.754 2102.9,940.701 2109.25,936.937 2115.58,933.466 2121.88,930.289 2128.14,927.408 2134.37,924.824 2140.55,922.54 2146.69,920.557 2152.78,918.876 2158.81,917.497 2164.79,916.423 2170.71,915.653 2176.57,915.187 2182.36,915.027 2188.08,915.172 2193.73,915.623 2199.29,916.378 2204.78,917.438 2210.19,918.801 2215.5,920.467 2220.73,922.436 2225.86,924.705 2230.9,927.274 2235.84,930.14 2240.67,933.303 2245.4,936.76 2250.02,940.509 2254.53,944.548 2258.93,948.875 2263.21,953.487 2267.37,958.381 2271.41,963.554 2275.32,969.003 2279.11,974.725 2282.77,980.716 2286.3,986.973 2289.7,993.492 2292.96,1000.27 2296.09,1007.3 2299.07,1014.58 "
                 id="polyline13"
                 style="display:none;fill:#ffffff;fill-opacity:1;stroke:none;stroke-width:18.3663;stroke-opacity:1" /><polyline
                 fill="none"
                 vector-effect="none"
                 points="1177,670.989 1169.56,676.221 1162.39,681.543 1155.47,686.951 1148.83,692.442 1142.45,698.013 1136.35,703.66 1130.52,709.38 1124.98,715.169 1119.72,721.024 1114.75,726.942 1110.07,732.919 1105.69,738.951 1101.6,745.035 1097.81,751.167 1094.32,757.344 1091.13,763.561 1088.25,769.816 1085.68,776.104 1083.41,782.421 1081.46,788.765 1079.81,795.13 1078.47,801.514 1077.45,807.912 1076.74,814.32 1076.35,820.736 1076.27,827.154 1076.5,833.571 1077.05,839.984 1077.91,846.388 1079.08,852.779 1080.56,859.154 1082.36,865.51 1084.47,871.841 1086.88,878.145 1089.61,884.417 1092.63,890.654 1095.97,896.852 1099.6,903.008 1103.54,909.117 1107.77,915.177 1112.3,921.183 1117.12,927.132 1122.23,933.02 1127.62,938.844 1133.3,944.6 1139.26,950.285 1145.49,955.895 1152,961.428 1158.78,966.879 1165.82,972.246 1173.12,977.525 1180.67,982.714 1188.48,987.808 1196.54,992.806 1204.83,997.703 1213.37,1002.5 1222.13,1007.19 1231.12,1011.77 1240.34,1016.24 1249.77,1020.59 1259.41,1024.83 1269.25,1028.95 1279.29,1032.95 1289.53,1036.82 1299.95,1040.57 1310.55,1044.19 1321.33,1047.68 1332.27,1051.03 1343.37,1054.25 1354.63,1057.34 1366.03,1060.28 1377.58,1063.09 1389.26,1065.75 1401.07,1068.27 1412.99,1070.65 1425.03,1072.87 1437.17,1074.95 1449.42,1076.89 1461.75,1078.67 1474.16,1080.3 1486.66,1081.77 1499.22,1083.1 1511.84,1084.27 1524.51,1085.29 1537.23,1086.15 1549.99,1086.85 1562.78,1087.4 1575.6,1087.79 1588.42,1088.03 1601.26,1088.11 1614.09,1088.03 1626.92,1087.79 1639.74,1087.4 1652.53,1086.85 1665.28,1086.15 1678.01,1085.29 1690.68,1084.27 1703.3,1083.1 1715.86,1081.77 1728.35,1080.3 1740.77,1078.67 1753.1,1076.89 1765.34,1074.95 1777.49,1072.87 1789.53,1070.65 1801.45,1068.27 1813.26,1065.75 1824.94,1063.09 1836.48,1060.28 1847.89,1057.34 1859.15,1054.25 1870.25,1051.03 1881.19,1047.68 1891.97,1044.19 1902.57,1040.57 1912.99,1036.82 1923.22,1032.95 1933.27,1028.95 1943.11,1024.83 1952.75,1020.59 1962.18,1016.24 1971.39,1011.77 1980.39,1007.19 1989.15,1002.5 1997.69,997.703 2005.98,992.806 2014.04,987.808 2021.84,982.714 2029.4,977.525 2036.7,972.246 2043.74,966.879 2050.52,961.428 2057.03,955.895 2063.26,950.285 2069.22,944.6 2074.9,938.844 2080.29,933.02 2085.4,927.132 2090.22,921.183 2094.75,915.177 2098.98,909.117 2102.92,903.008 2106.55,896.852 2109.88,890.654 2112.91,884.417 2115.64,878.145 2118.05,871.841 2120.16,865.51 2121.95,859.154 2123.44,852.779 2124.61,846.388 2125.47,839.984 2126.02,833.571 2126.25,827.154 2126.17,820.736 2125.77,814.32 2125.07,807.912 2124.04,801.514 2122.71,795.13 2121.06,788.765 2119.11,782.421 2116.84,776.104 2114.27,769.816 2111.38,763.561 2108.2,757.344 2104.71,751.167 2100.92,745.035 2096.83,738.951 2092.44,732.919 2087.76,726.942 2082.79,721.024 2077.54,715.169 2071.99,709.38 2066.17,703.66 2060.07,698.013 2053.69,692.442 2047.05,686.951 2040.13,681.543 2032.96,676.221 2025.52,670.989 "
                 id="polyline14"
                 style="display:none;fill:#ffffff;fill-opacity:1;stroke:none;stroke-width:18.3663;stroke-opacity:1" /><polyline
                 fill="none"
                 vector-effect="none"
                 points="903.444,1564.33 910.175,1580.84 917.296,1597.18 924.804,1613.35 932.694,1629.34 940.962,1645.13 949.603,1660.73 958.612,1676.11 967.984,1691.28 977.714,1706.22 987.796,1720.92 998.225,1735.38 1009,1749.59 1020.1,1763.54 1031.53,1777.22 1043.29,1790.62 1055.36,1803.74 1067.74,1816.57 1080.42,1829.1 1093.39,1841.33 1106.65,1853.25 1120.19,1864.85 1134,1876.12 1148.08,1887.06 1162.41,1897.66 1177,1907.92 "
                 id="polyline15"
                 style="display:none;fill:#ffffff;fill-opacity:1;stroke:none;stroke-width:18.3663;stroke-opacity:1" /><polyline
                 fill="none"
                 vector-effect="none"
                 points="1177,670.989 1167.09,677.904 1157.29,684.978 "
                 id="polyline16"
                 style="display:none;fill:#ffffff;fill-opacity:1;stroke:none;stroke-width:18.3663;stroke-opacity:1" /><polyline
                 fill="none"
                 vector-effect="none"
                 points="2299.07,1014.58 2292.34,998.073 2285.22,981.729 2277.71,965.558 2269.82,949.571 2261.56,933.776 2252.92,918.181 2243.91,902.797 2234.53,887.631 2224.8,872.691 2214.72,857.988 2204.29,843.528 2193.52,829.32 2182.42,815.373 2170.99,801.693 2159.23,788.288 2147.16,775.167 2134.78,762.337 2122.1,749.804 2109.13,737.577 2095.87,725.661 2082.33,714.064 2068.51,702.791 2054.44,691.851 2040.1,681.248 2025.52,670.989 "
                 id="polyline17"
                 style="display:none;fill:#ffffff;fill-opacity:1;stroke:none;stroke-width:18.3663;stroke-opacity:1" /><polyline
                 fill="none"
                 vector-effect="none"
                 points="2025.52,1907.92 2035.43,1901.01 2045.23,1893.93 "
                 id="polyline18"
                 style="display:none;fill:#ffffff;fill-opacity:1;stroke:none;stroke-width:18.3663;stroke-opacity:1" /><polyline
                 fill="none"
                 vector-effect="none"
                 points="1677.15,1918.24 1684.35,1911.8 1691.34,1905.12 1698.11,1898.2 1704.67,1891.07 1711,1883.7 1717.1,1876.12 1722.98,1868.33 1728.61,1860.33 1734.01,1852.12 1739.17,1843.72 1744.09,1835.12 1748.75,1826.33 1753.17,1817.35 1757.33,1808.2 1761.24,1798.88 1764.89,1789.39 1768.28,1779.74 1771.41,1769.93 1774.28,1759.97 1776.88,1749.87 1779.21,1739.63 1781.27,1729.26 1783.07,1718.76 1784.59,1708.15 1785.84,1697.42 1786.82,1686.59 1787.53,1675.66 1787.96,1664.63 1788.12,1653.52 1788,1642.33 1787.61,1631.06 1786.95,1619.73 1786.02,1608.34 1784.81,1596.9 1783.33,1585.41 1781.58,1573.89 1779.56,1562.33 1777.27,1550.75 1774.71,1539.15 1771.89,1527.54 1768.8,1515.92 1765.45,1504.31 1761.84,1492.71 1757.97,1481.13 1753.85,1469.57 1749.47,1458.04 1744.85,1446.55 1739.97,1435.1 1734.85,1423.71 1729.49,1412.38 1723.89,1401.11 1718.05,1389.91 1711.99,1378.8 1705.69,1367.76 1699.17,1356.83 1692.43,1345.99 1685.48,1335.25 1678.31,1324.63 1670.94,1314.13 1663.36,1303.75 1655.58,1293.5 1647.61,1283.39 1639.45,1273.43 1631.1,1263.61 1622.58,1253.95 1613.88,1244.45 1605.01,1235.11 1595.98,1225.95 1586.79,1216.97 1577.45,1208.17 1567.96,1199.56 1558.33,1191.14 1548.57,1182.92 1538.67,1174.9 1528.65,1167.1 1518.52,1159.51 1508.27,1152.13 1497.92,1144.98 1487.46,1138.05 1476.92,1131.36 1466.29,1124.9 1455.58,1118.68 1444.79,1112.7 1433.94,1106.97 1423.03,1101.48 1412.06,1096.25 1401.05,1091.28 1389.99,1086.57 1378.91,1082.11 1367.79,1077.93 1356.65,1074 1345.5,1070.35 1334.35,1066.97 1323.19,1063.87 1312.04,1061.04 1300.9,1058.48 1289.78,1056.21 1278.68,1054.22 1267.62,1052.5 1256.6,1051.07 1245.63,1049.93 1234.71,1049.06 1223.84,1048.48 1213.05,1048.19 1202.33,1048.18 1191.68,1048.46 1181.12,1049.02 1170.66,1049.87 1160.29,1051 1150.02,1052.41 1139.87,1054.1 1129.83,1056.08 1119.91,1058.34 1110.13,1060.88 1100.48,1063.69 1090.96,1066.78 1081.6,1070.14 1072.38,1073.78 1063.33,1077.68 1054.43,1081.85 1045.71,1086.29 1037.16,1090.99 1028.78,1095.95 1020.59,1101.16 1012.59,1106.63 1004.78,1112.35 997.17,1118.31 989.762,1124.52 982.561,1130.96 975.571,1137.64 968.797,1144.55 962.243,1151.69 955.912,1159.05 949.808,1166.63 943.936,1174.43 938.298,1182.43 932.899,1190.64 927.74,1199.04 922.826,1207.64 918.159,1216.43 913.743,1225.4 909.579,1234.56 905.671,1243.88 902.02,1253.37 898.629,1263.02 895.5,1272.83 892.635,1282.79 890.035,1292.89 887.703,1303.13 885.639,1313.5 883.845,1323.99 882.321,1334.61 881.07,1345.34 880.09,1356.17 879.384,1367.1 878.952,1378.13 878.793,1389.24 878.908,1400.43 879.297,1411.7 879.959,1423.03 880.895,1434.42 882.103,1445.86 883.583,1457.34 885.335,1468.87 887.356,1480.43 889.645,1492.01 892.202,1503.61 895.025,1515.22 898.112,1526.84 901.462,1538.45 905.071,1550.05 908.938,1561.63 913.062,1573.19 917.438,1584.72 922.065,1596.21 926.94,1607.65 932.06,1619.05 937.421,1630.38 943.021,1641.65 948.856,1652.85 954.923,1663.96 961.218,1674.99 967.737,1685.93 974.476,1696.77 981.432,1707.51 988.6,1718.13 995.975,1728.63 1003.55,1739.01 1011.33,1749.26 1019.3,1759.37 1027.46,1769.33 1035.81,1779.15 1044.33,1788.81 1053.03,1798.31 1061.9,1807.65 1070.93,1816.81 1080.12,1825.79 1089.46,1834.59 1098.95,1843.2 1108.58,1851.62 1118.34,1859.84 1128.24,1867.85 1138.26,1875.66 1148.39,1883.25 1158.64,1890.63 1168.99,1897.78 1179.45,1904.71 1189.99,1911.4 1200.62,1917.86 1211.33,1924.08 1222.12,1930.06 1232.97,1935.79 1243.88,1941.27 1254.85,1946.5 1265.86,1951.48 1276.92,1956.19 1288.01,1960.64 1299.12,1964.83 1310.26,1968.75 1321.41,1972.41 1332.57,1975.78 1343.72,1978.89 1354.88,1981.72 1366.02,1984.27 1377.13,1986.55 1388.23,1988.54 1399.29,1990.26 1410.31,1991.69 1421.28,1992.83 1432.2,1993.7 1443.07,1994.27 1453.86,1994.57 1464.59,1994.58 1475.23,1994.3 1485.79,1993.74 1496.26,1992.89 1506.63,1991.76 1516.89,1990.35 1527.04,1988.65 1537.08,1986.68 1547,1984.42 1556.78,1981.88 1566.44,1979.07 1575.95,1975.98 1585.31,1972.62 1594.53,1968.98 1603.58,1965.08 1612.48,1960.9 1621.2,1956.47 1629.75,1951.77 1638.13,1946.81 1646.32,1941.6 1654.32,1936.13 1662.13,1930.41 1669.74,1924.45 1677.15,1918.24 "
                 id="polyline21"
                 style="display:none;fill:#ffffff;fill-opacity:1;stroke:none;stroke-width:18.3663;stroke-opacity:1" /></g><g
             id="g72"
             transform="matrix(0.99939083,-0.03489932,0.0348995,0.99938576,-1.7147699,1.7754417)"
             style="display:none;stroke-width:1"><path
                 id="path72"
                 style="display:inline;fill:#cccccc;fill-opacity:1;stroke-width:64.0001;stroke-miterlimit:12.2;stroke-opacity:0.5;paint-order:stroke fill markers"
                 d="M 50.000978,100.00049 A 50,50 0 0 0 100.00049,50.000978 50,50 0 0 0 50.000978,0 50,50 0 0 0 0,50.000978 50,50 0 0 0 50.000978,100.00049 Z m 0.600586,-0.950684 c -7.133492,0.08823 -14.278322,-1.400258 -20.778808,-4.340332 -3.939953,-1.87335 -7.908552,-3.98286 -10.973145,-7.148437 -2.516597,-2.570928 -3.98593,-6.471745 -2.734863,-9.990235 1.576208,-4.533717 5.786332,-7.476148 9.914062,-9.522949 8.214968,-3.890249 17.472246,-5.104518 26.48877,-4.831054 8.187139,0.355647 16.545275,1.923498 23.720215,6.048339 3.678506,2.185009 7.33006,5.422094 8.012695,9.865723 0.60433,3.996073 -1.890271,7.708526 -4.885254,10.103027 -8.178851,6.280823 -18.470822,9.683819 -28.763672,9.815918 z M 88.006349,74.490236 C 83.610945,74.344891 80.108454,71.07573 77.36426,67.954103 71.827826,61.306928 68.325406,53.199544 65.934084,44.948732 63.67452,36.744928 62.402354,28.079433 63.682619,19.601076 c 0.679316,-3.835663 1.903009,-8.026573 5.200195,-10.426758 2.621288,-1.903422 6.204663,-1.252445 8.783203,0.382324 6.604372,4.370539 11.980986,10.53037 15.691407,17.510743 6.838886,12.762818 7.576336,28.616198 1.845703,41.923828 -1.254652,2.867816 -3.855275,5.572323 -7.196778,5.499023 z M 23.909181,65.78174 C 20.29036,65.73549 16.649388,64.920716 13.461916,63.177248 7.712798,60.145269 3.991493,54.089523 3.079103,47.742189 1.700144,38.56469 4.881982,29.211734 10.101564,21.720705 16.133458,13.127141 25.225597,6.317457 35.667482,4.349123 c 6.735929,-1.290566 14.255985,-0.0099 19.464844,4.677246 5.242282,4.585822 7.434212,11.824024 7.056152,18.631348 C 61.623551,38.163192 56.219176,48.004842 48.641603,55.130861 41.976564,61.358408 33.180034,65.83308 23.909181,65.78174 Z" /><path
                 id="circle58"
                 style="display:inline;fill:#000000;fill-opacity:1;stroke-width:64.0001;stroke-miterlimit:12.2;stroke-opacity:0.5;paint-order:stroke fill markers"
                 d="M -49.999512,0 A 50,50 0 0 1 0,49.999512 50,50 0 0 1 -49.999512,100.00049 50,50 0 0 1 -100.00049,49.999512 50,50 0 0 1 -49.999512,0 Z m 0.600586,0.95068359 c -7.133492,-0.0882284 -14.278322,1.40025821 -20.778808,4.34033201 -3.939953,1.8733507 -7.908552,3.9828602 -10.973145,7.1484374 -2.516597,2.570928 -3.98593,6.471745 -2.734863,9.990235 1.576208,4.533717 5.786332,7.476148 9.914062,9.522949 8.214968,3.890249 17.472246,5.104518 26.48877,4.831054 8.187139,-0.355647 16.545275,-1.923498 23.720215,-6.048339 3.678506,-2.185009 7.33006,-5.422094 8.012695,-9.865723 0.60433,-3.996073 -1.890271,-7.708526 -4.885254,-10.103027 C -28.814105,4.4857791 -39.106076,1.0827834 -49.398926,0.95068359 Z M -11.994141,25.510254 c -4.395404,0.145345 -7.897895,3.414506 -10.642089,6.536133 -5.536434,6.647175 -9.038854,14.754559 -11.430176,23.005371 -2.259564,8.203804 -3.53173,16.869299 -2.251465,25.347656 0.679316,3.835663 1.903009,8.026573 5.200195,10.426758 2.621288,1.903422 6.204663,1.252445 8.783203,-0.382324 6.604372,-4.370539 11.980986,-10.53037 15.6914066,-17.510743 6.83888866,-12.762818 7.57633564,-28.616198 1.8457031,-41.923828 -1.2546514,-2.867816 -3.8552746,-5.572323 -7.1967777,-5.499023 z m -64.097168,8.708496 c -3.618821,0.04625 -7.259793,0.861024 -10.447265,2.604492 -5.749118,3.031979 -9.470423,9.087725 -10.382813,15.435059 -1.378959,9.177499 1.802879,18.530455 7.022461,26.021484 6.031894,8.593564 15.124033,15.403248 25.565918,17.371582 6.735929,1.290566 14.255985,0.0099 19.464844,-4.677246 5.242282,-4.585822 7.434212,-11.824024 7.056152,-18.631348 C -38.376939,61.837298 -43.781314,51.995648 -51.358887,44.869629 -58.023926,38.642082 -66.820456,34.16741 -76.091309,34.21875 Z"
                 transform="scale(-1,1)" /></g><g
             id="g110"
             transform="matrix(0.99938576,-0.03489932,0.03489932,0.99938573,-1.7147612,1.7754417)"
             style="display:none;stroke-width:1"><path
                 id="path109"
                 style="display:inline;fill:#0032db;fill-opacity:1;stroke-width:64.0003;stroke-miterlimit:12.2;stroke-opacity:0.5;paint-order:stroke fill markers"
                 d="M 50.000978,100.00049 A 50,50 0 0 0 100.00049,50.000978 50,50 0 0 0 50.000978,0 50,50 0 0 0 0,50.000978 50,50 0 0 0 50.000978,100.00049 Z m 0.600586,-0.950684 c -7.133492,0.08823 -14.278322,-1.400258 -20.778808,-4.340332 -3.939953,-1.87335 -7.908552,-3.98286 -10.973145,-7.148437 -2.516597,-2.570928 -3.98593,-6.471745 -2.734863,-9.990235 1.576208,-4.533717 5.786332,-7.476148 9.914062,-9.522949 8.214968,-3.890249 17.472246,-5.104518 26.48877,-4.831054 8.187139,0.355647 16.545275,1.923498 23.720215,6.048339 3.678506,2.185009 7.33006,5.422094 8.012695,9.865723 0.60433,3.996073 -1.890271,7.708526 -4.885254,10.103027 -8.178851,6.280823 -18.470822,9.683819 -28.763672,9.815918 z M 88.006349,74.490236 C 83.610945,74.344891 80.108454,71.07573 77.36426,67.954103 71.827826,61.306928 68.325406,53.199544 65.934084,44.948732 63.67452,36.744928 62.402354,28.079433 63.682619,19.601076 c 0.679316,-3.835663 1.903009,-8.026573 5.200195,-10.426758 2.621288,-1.903422 6.204663,-1.252445 8.783203,0.382324 6.604372,4.370539 11.980986,10.53037 15.691407,17.510743 6.838886,12.762818 7.576336,28.616198 1.845703,41.923828 -1.254652,2.867816 -3.855275,5.572323 -7.196778,5.499023 z M 23.909181,65.78174 C 20.29036,65.73549 16.649388,64.920716 13.461916,63.177248 7.712798,60.145269 3.991493,54.089523 3.079103,47.742189 1.700144,38.56469 4.881982,29.211734 10.101564,21.720705 16.133458,13.127141 25.225597,6.317457 35.667482,4.349123 c 6.735929,-1.290566 14.255985,-0.0099 19.464844,4.677246 5.242282,4.585822 7.434212,11.824024 7.056152,18.631348 C 61.623551,38.163192 56.219176,48.004842 48.641603,55.130861 41.976564,61.358408 33.180034,65.83308 23.909181,65.78174 Z" /><path
                 id="path110"
                 style="display:inline;fill:#fbb905;fill-opacity:1;stroke-width:64.0003;stroke-miterlimit:12.2;stroke-opacity:0.5;paint-order:stroke fill markers"
                 d="M -49.999512,0 A 50,50 0 0 1 0,49.999512 50,50 0 0 1 -49.999512,100.00049 50,50 0 0 1 -100.00049,49.999512 50,50 0 0 1 -49.999512,0 Z m 0.600586,0.95068359 c -7.133492,-0.0882284 -14.278322,1.40025821 -20.778808,4.34033201 -3.939953,1.8733507 -7.908552,3.9828602 -10.973145,7.1484374 -2.516597,2.570928 -3.98593,6.471745 -2.734863,9.990235 1.576208,4.533717 5.786332,7.476148 9.914062,9.522949 8.214968,3.890249 17.472246,5.104518 26.48877,4.831054 8.187139,-0.355647 16.545275,-1.923498 23.720215,-6.048339 3.678506,-2.185009 7.33006,-5.422094 8.012695,-9.865723 0.60433,-3.996073 -1.890271,-7.708526 -4.885254,-10.103027 C -28.814105,4.4857791 -39.106076,1.0827834 -49.398926,0.95068359 Z M -11.994141,25.510254 c -4.395404,0.145345 -7.897895,3.414506 -10.642089,6.536133 -5.536434,6.647175 -9.038854,14.754559 -11.430176,23.005371 -2.259564,8.203804 -3.53173,16.869299 -2.251465,25.347656 0.679316,3.835663 1.903009,8.026573 5.200195,10.426758 2.621288,1.903422 6.204663,1.252445 8.783203,-0.382324 6.604372,-4.370539 11.980986,-10.53037 15.6914066,-17.510743 6.83888866,-12.762818 7.57633564,-28.616198 1.8457031,-41.923828 -1.2546514,-2.867816 -3.8552746,-5.572323 -7.1967777,-5.499023 z m -64.097168,8.708496 c -3.618821,0.04625 -7.259793,0.861024 -10.447265,2.604492 -5.749118,3.031979 -9.470423,9.087725 -10.382813,15.435059 -1.378959,9.177499 1.802879,18.530455 7.022461,26.021484 6.031894,8.593564 15.124033,15.403248 25.565918,17.371582 6.735929,1.290566 14.255985,0.0099 19.464844,-4.677246 5.242282,-4.585822 7.434212,-11.824024 7.056152,-18.631348 C -38.376939,61.837298 -43.781314,51.995648 -51.358887,44.869629 -58.023926,38.642082 -66.820456,34.16741 -76.091309,34.21875 Z"
                 transform="scale(-1,1)" /></g><g
             id="g128"
             transform="matrix(0.99939083,-0.03489932,0.0348995,0.99938573,-1.7147699,1.7754417)"
             style="display:none;stroke-width:1"><path
                 id="path127"
                 style="display:inline;fill:url(#radialGradient134);stroke-width:64.0001;stroke-miterlimit:12.2;stroke-opacity:0.5;paint-order:stroke fill markers"
                 d="M 50.000978,100.00049 A 50,50 0 0 0 100.00049,50.000978 50,50 0 0 0 50.000978,0 50,50 0 0 0 0,50.000978 50,50 0 0 0 50.000978,100.00049 Z m 0.600586,-0.950684 c -7.133492,0.08823 -14.278322,-1.400258 -20.778808,-4.340332 -3.939953,-1.87335 -7.908552,-3.98286 -10.973145,-7.148437 -2.516597,-2.570928 -3.98593,-6.471745 -2.734863,-9.990235 1.576208,-4.533717 5.786332,-7.476148 9.914062,-9.522949 8.214968,-3.890249 17.472246,-5.104518 26.48877,-4.831054 8.187139,0.355647 16.545275,1.923498 23.720215,6.048339 3.678506,2.185009 7.33006,5.422094 8.012695,9.865723 0.60433,3.996073 -1.890271,7.708526 -4.885254,10.103027 -8.178851,6.280823 -18.470822,9.683819 -28.763672,9.815918 z M 88.006349,74.490236 C 83.610945,74.344891 80.108454,71.07573 77.36426,67.954103 71.827826,61.306928 68.325406,53.199544 65.934084,44.948732 63.67452,36.744928 62.402354,28.079433 63.682619,19.601076 c 0.679316,-3.835663 1.903009,-8.026573 5.200195,-10.426758 2.621288,-1.903422 6.204663,-1.252445 8.783203,0.382324 6.604372,4.370539 11.980986,10.53037 15.691407,17.510743 6.838886,12.762818 7.576336,28.616198 1.845703,41.923828 -1.254652,2.867816 -3.855275,5.572323 -7.196778,5.499023 z M 23.909181,65.78174 C 20.29036,65.73549 16.649388,64.920716 13.461916,63.177248 7.712798,60.145269 3.991493,54.089523 3.079103,47.742189 1.700144,38.56469 4.881982,29.211734 10.101564,21.720705 16.133458,13.127141 25.225597,6.317457 35.667482,4.349123 c 6.735929,-1.290566 14.255985,-0.0099 19.464844,4.677246 5.242282,4.585822 7.434212,11.824024 7.056152,18.631348 C 61.623551,38.163192 56.219176,48.004842 48.641603,55.130861 41.976564,61.358408 33.180034,65.83308 23.909181,65.78174 Z" /><path
                 id="path128"
                 style="display:inline;fill:url(#radialGradient133);stroke-width:64.0001;stroke-miterlimit:12.2;stroke-opacity:0.5;paint-order:stroke fill markers"
                 d="M -49.999512,0 A 50,50 0 0 1 0,49.999512 50,50 0 0 1 -49.999512,100.00049 50,50 0 0 1 -100.00049,49.999512 50,50 0 0 1 -49.999512,0 Z m 0.600586,0.95068359 c -7.133492,-0.0882284 -14.278322,1.40025821 -20.778808,4.34033201 -3.939953,1.8733507 -7.908552,3.9828602 -10.973145,7.1484374 -2.516597,2.570928 -3.98593,6.471745 -2.734863,9.990235 1.576208,4.533717 5.786332,7.476148 9.914062,9.522949 8.214968,3.890249 17.472246,5.104518 26.48877,4.831054 8.187139,-0.355647 16.545275,-1.923498 23.720215,-6.048339 3.678506,-2.185009 7.33006,-5.422094 8.012695,-9.865723 0.60433,-3.996073 -1.890271,-7.708526 -4.885254,-10.103027 C -28.814105,4.4857791 -39.106076,1.0827834 -49.398926,0.95068359 Z M -11.994141,25.510254 c -4.395404,0.145345 -7.897895,3.414506 -10.642089,6.536133 -5.536434,6.647175 -9.038854,14.754559 -11.430176,23.005371 -2.259564,8.203804 -3.53173,16.869299 -2.251465,25.347656 0.679316,3.835663 1.903009,8.026573 5.200195,10.426758 2.621288,1.903422 6.204663,1.252445 8.783203,-0.382324 6.604372,-4.370539 11.980986,-10.53037 15.6914066,-17.510743 6.83888866,-12.762818 7.57633564,-28.616198 1.8457031,-41.923828 -1.2546514,-2.867816 -3.8552746,-5.572323 -7.1967777,-5.499023 z m -64.097168,8.708496 c -3.618821,0.04625 -7.259793,0.861024 -10.447265,2.604492 -5.749118,3.031979 -9.470423,9.087725 -10.382813,15.435059 -1.378959,9.177499 1.802879,18.530455 7.022461,26.021484 6.031894,8.593564 15.124033,15.403248 25.565918,17.371582 6.735929,1.290566 14.255985,0.0099 19.464844,-4.677246 5.242282,-4.585822 7.434212,-11.824024 7.056152,-18.631348 C -38.376939,61.837298 -43.781314,51.995648 -51.358887,44.869629 -58.023926,38.642082 -66.820456,34.16741 -76.091309,34.21875 Z"
                 transform="scale(-1,1)" /></g><g
             id="g184"
             transform="matrix(0.99939083,-0.03489932,0.0348995,0.99938573,-1.7147699,1.7754417)"
             style="display:inline;stroke-width:1"><path
                 id="path183"
                 style="display:inline;fill:#333333;fill-opacity:1;stroke-width:64.0001;stroke-miterlimit:12.2;stroke-opacity:0.5;paint-order:stroke fill markers"
                 d="M 50.000978,100.00049 A 50,50 0 0 0 100.00049,50.000978 50,50 0 0 0 50.000978,0 50,50 0 0 0 0,50.000978 50,50 0 0 0 50.000978,100.00049 Z m 0.600586,-0.950684 c -7.133492,0.08823 -14.278322,-1.400258 -20.778808,-4.340332 -3.939953,-1.87335 -7.908552,-3.98286 -10.973145,-7.148437 -2.516597,-2.570928 -3.98593,-6.471745 -2.734863,-9.990235 1.576208,-4.533717 5.786332,-7.476148 9.914062,-9.522949 8.214968,-3.890249 17.472246,-5.104518 26.48877,-4.831054 8.187139,0.355647 16.545275,1.923498 23.720215,6.048339 3.678506,2.185009 7.33006,5.422094 8.012695,9.865723 0.60433,3.996073 -1.890271,7.708526 -4.885254,10.103027 -8.178851,6.280823 -18.470822,9.683819 -28.763672,9.815918 z M 88.006349,74.490236 C 83.610945,74.344891 80.108454,71.07573 77.36426,67.954103 71.827826,61.306928 68.325406,53.199544 65.934084,44.948732 63.67452,36.744928 62.402354,28.079433 63.682619,19.601076 c 0.679316,-3.835663 1.903009,-8.026573 5.200195,-10.426758 2.621288,-1.903422 6.204663,-1.252445 8.783203,0.382324 6.604372,4.370539 11.980986,10.53037 15.691407,17.510743 6.838886,12.762818 7.576336,28.616198 1.845703,41.923828 -1.254652,2.867816 -3.855275,5.572323 -7.196778,5.499023 z M 23.909181,65.78174 C 20.29036,65.73549 16.649388,64.920716 13.461916,63.177248 7.712798,60.145269 3.991493,54.089523 3.079103,47.742189 1.700144,38.56469 4.881982,29.211734 10.101564,21.720705 16.133458,13.127141 25.225597,6.317457 35.667482,4.349123 c 6.735929,-1.290566 14.255985,-0.0099 19.464844,4.677246 5.242282,4.585822 7.434212,11.824024 7.056152,18.631348 C 61.623551,38.163192 56.219176,48.004842 48.641603,55.130861 41.976564,61.358408 33.180034,65.83308 23.909181,65.78174 Z" /><path
                 id="path184"
                 style="display:inline;fill:#ffffff;fill-opacity:1;stroke-width:64.0001;stroke-miterlimit:12.2;stroke-opacity:0.5;paint-order:stroke fill markers"
                 d="M -49.999512,0 A 50,50 0 0 1 0,49.999512 50,50 0 0 1 -49.999512,100.00049 50,50 0 0 1 -100.00049,49.999512 50,50 0 0 1 -49.999512,0 Z m 0.600586,0.95068359 c -7.133492,-0.0882284 -14.278322,1.40025821 -20.778808,4.34033201 -3.939953,1.8733507 -7.908552,3.9828602 -10.973145,7.1484374 -2.516597,2.570928 -3.98593,6.471745 -2.734863,9.990235 1.576208,4.533717 5.786332,7.476148 9.914062,9.522949 8.214968,3.890249 17.472246,5.104518 26.48877,4.831054 8.187139,-0.355647 16.545275,-1.923498 23.720215,-6.048339 3.678506,-2.185009 7.33006,-5.422094 8.012695,-9.865723 0.60433,-3.996073 -1.890271,-7.708526 -4.885254,-10.103027 C -28.814105,4.4857791 -39.106076,1.0827834 -49.398926,0.95068359 Z M -11.994141,25.510254 c -4.395404,0.145345 -7.897895,3.414506 -10.642089,6.536133 -5.536434,6.647175 -9.038854,14.754559 -11.430176,23.005371 -2.259564,8.203804 -3.53173,16.869299 -2.251465,25.347656 0.679316,3.835663 1.903009,8.026573 5.200195,10.426758 2.621288,1.903422 6.204663,1.252445 8.783203,-0.382324 6.604372,-4.370539 11.980986,-10.53037 15.6914066,-17.510743 6.83888866,-12.762818 7.57633564,-28.616198 1.8457031,-41.923828 -1.2546514,-2.867816 -3.8552746,-5.572323 -7.1967777,-5.499023 z m -64.097168,8.708496 c -3.618821,0.04625 -7.259793,0.861024 -10.447265,2.604492 -5.749118,3.031979 -9.470423,9.087725 -10.382813,15.435059 -1.378959,9.177499 1.802879,18.530455 7.022461,26.021484 6.031894,8.593564 15.124033,15.403248 25.565918,17.371582 6.735929,1.290566 14.255985,0.0099 19.464844,-4.677246 5.242282,-4.585822 7.434212,-11.824024 7.056152,-18.631348 C -38.376939,61.837298 -43.781314,51.995648 -51.358887,44.869629 -58.023926,38.642082 -66.820456,34.16741 -76.091309,34.21875 Z"
                 transform="scale(-1,1)" /></g><g
             id="g108"
             style="display:none"><path
                 id="path105"
                 style="display:inline;stroke-width:63.9999;stroke-miterlimit:12.2;stroke-opacity:0.5;paint-order:stroke fill markers"
                 d="M 48.254883,0.03076172 A 50,50 0 0 0 0.03076172,51.744141 a 50,50 0 0 0 1.00781248,8.0083 50,50 0 0 0 1.1469727,4.867676 50,50 0 0 0 49.5585941,35.34961 50,50 0 0 0 8.0083,-1.007813 50,50 0 0 0 4.867676,-1.146973 A 50,50 0 0 0 96.833496,67.511719 50,50 0 0 0 98.71875,61.248047 50,50 0 0 0 99.969727,48.254883 50,50 0 0 0 67.511719,3.1669922 50,50 0 0 0 63.131836,1.8486328 50,50 0 0 0 48.254883,0.03076172 Z M 47.687988,1.0019531 c 7.126068,-0.33712986 14.317371,0.9008856 20.916504,3.6123047 3.054277,1.3235989 6.131273,2.7835836 8.827149,4.7592774 0.837335,0.6136481 1.637142,1.2765698 2.38916,2.0009768 2.604788,2.481534 4.209542,6.329152 3.082031,9.88916 -1.417023,4.585964 -5.5219,7.673183 -9.575684,9.862793 -3.178615,1.64343 -6.533233,2.877956 -9.98291,3.773437 0.07751,0.415116 0.159634,0.829918 0.244629,1.243653 3.758373,-1.677199 7.783087,-2.703696 11.935547,-2.825684 3.618231,-0.08007 7.28585,0.607117 10.532227,2.238281 5.85143,2.829491 9.781197,8.751363 10.91455,15.062989 1.195264,6.420905 0.136246,13.007657 -2.323242,19.019531 -1.035321,2.530696 -2.318735,4.960139 -3.786621,7.231933 -2.377538,3.651965 -5.317653,6.983176 -8.655762,9.834961 -4.704543,4.019147 -10.223527,7.054618 -16.287597,8.418457 -6.686786,1.524861 -14.247923,0.506411 -19.617188,-3.996093 -5.399131,-4.400076 -7.842406,-11.557164 -7.702148,-18.373535 0.05343,-2.839475 0.461206,-5.643416 1.171875,-8.368653 0.238713,-0.915404 0.512203,-1.821125 0.817383,-2.717285 2.151968,-6.319255 5.907808,-12.120204 10.59082,-16.842773 2.407616,-2.412369 5.140473,-4.559538 8.078613,-6.355957 0.32869,-0.951146 0.718924,-1.881979 0.972656,-2.854981 -4.344204,0.8679 -8.798436,1.243939 -13.207031,1.26416 -8.194563,-0.0697 -16.60198,-1.344382 -23.916504,-5.216308 -3.752521,-2.0553 -7.515239,-5.16298 -8.352539,-9.580078 -0.620765,-3.317117 0.925619,-6.511642 3.146485,-8.929688 0.438822,-0.477783 0.902758,-0.925329 1.382812,-1.337402 C 27.237874,5.2529945 37.406019,1.4931877 47.687988,1.0019531 Z M 11.162109,26.852051 c 4.397799,-0.0081 8.013281,3.135713 10.864746,6.159668 5.765045,6.449907 9.547772,14.43142 12.225586,22.59375 0.847015,2.702978 1.585817,5.460496 2.15918,8.251465 0.085,0.413734 0.167124,0.828536 0.244629,1.243652 0.970295,5.196864 1.338595,10.495217 0.730957,15.757324 -0.545039,3.857034 -1.621107,8.088746 -4.832519,10.602539 -2.553264,1.993744 -6.157971,1.46761 -8.791993,-0.07617 C 23.360768,91.138022 22.962424,90.88598 22.568848,90.626953 16.349846,86.534002 11.185803,80.870762 7.4692383,74.431641 0.18909972,61.915271 -1.1010909,46.098152 4.1616211,32.598633 4.4786092,31.799198 4.9067312,31.014378 5.4169922,30.287109 6.7640248,28.367202 8.7382517,26.883499 11.162109,26.852051 Z" /><path
                 d="m 36.65625,65.100586 c -0.07751,-0.415116 -0.159633,-0.829918 -0.244629,-1.243652 -3.758373,1.677199 -7.783087,2.703695 -11.935547,2.825683 -3.61823,0.08007 -7.28585,-0.607116 -10.532226,-2.238281 C 8.0924173,61.614845 4.1626498,55.692973 3.0292969,49.381348 1.8283098,42.929695 2.9322705,36.322225 5.4169922,30.287109 c -0.510261,0.727269 -0.938383,1.512089 -1.2553711,2.311524 -5.262712,13.499519 -3.97252134,29.316638 3.3076172,41.833008 3.7165647,6.439121 8.8806077,12.102361 15.0996097,16.195312 -0.837336,-0.613648 -1.637143,-1.27657 -2.38916,-2.000976 -2.604789,-2.481534 -4.209543,-6.329152 -3.082032,-9.889161 1.417024,-4.585964 5.521901,-7.673183 9.575684,-9.862793 3.178615,-1.64343 6.533233,-2.877955 9.98291,-3.773437 z"
                 style="display:inline;fill:#cccccc;stroke-width:63.9999;stroke-miterlimit:12.2;stroke-opacity:0.5;paint-order:stroke fill markers"
                 id="path104" /><path
                 id="path99"
                 style="display:inline;fill:#cccccc;stroke-width:63.9999;stroke-miterlimit:12.2;stroke-opacity:0.5;paint-order:stroke fill markers"
                 d="M 47.687988,1.0019531 C 37.406019,1.4931877 27.237874,5.2529948 19.283203,11.81543 c -0.480054,0.412073 -0.94399,0.859619 -1.382812,1.337402 4.676532,-3.9635597 10.173886,-6.9250837 16.182129,-8.2763672 6.686785,-1.5248603 14.247922,-0.5064104 19.617187,3.9960938 5.399131,4.4000754 7.842406,11.5571634 7.702148,18.3735354 -0.05343,2.839474 -0.461206,5.643415 -1.171875,8.368652 -0.253732,0.973002 -0.643966,1.903835 -0.972656,2.854981 -2.161089,6.253658 -5.794322,12.024648 -10.435547,16.705078 -2.455218,2.460065 -5.22863,4.677169 -8.233886,6.493652 -0.30518,0.89616 -0.57867,1.801881 -0.817383,2.717285 4.344204,-0.8679 8.798436,-1.243939 13.207031,-1.26416 8.194564,0.0697 16.60198,1.344382 23.916504,5.216309 3.752521,2.0553 7.515239,5.162979 8.352539,9.580078 0.609742,3.258214 -0.883607,6.385593 -3.041016,8.787597 3.338109,-2.851785 6.278224,-6.182996 8.655762,-9.834961 1.467886,-2.271794 2.7513,-4.701237 3.786621,-7.231933 -1.347783,1.95903 -3.351863,3.477878 -5.80957,3.509766 -4.397799,0.0081 -8.013281,-3.135714 -10.864746,-6.159668 -5.765045,-6.449907 -9.547772,-14.431421 -12.225586,-22.59375 -0.847015,-2.702978 -1.585816,-5.460497 -2.15918,-8.251465 -0.08499,-0.413735 -0.167123,-0.828537 -0.244629,-1.243653 -0.970295,-5.196864 -1.338594,-10.495217 -0.730957,-15.757324 0.54504,-3.857034 1.621108,-8.088746 4.83252,-10.6025389 2.553262,-1.9937442 6.15797,-1.4676118 8.791992,0.076172 0.401929,0.2462558 0.80027,0.4982961 1.193848,0.7573243 C 74.735765,7.3978412 71.658769,5.9378567 68.604492,4.6142578 62.005359,1.9028387 54.814056,0.66482321 47.687988,1.0019531 Z" /></g></g></svg>
